<svg xmlns="http://www.w3.org/2000/svg" version="1.1" xmlns:xlink="http://www.w3.org/1999/xlink" width="512" height="512" x="0" y="0" viewBox="0 0 390 390" style="enable-background:new 0 0 512 512" xml:space="preserve" class=""><g><path d="M44.283 139.699a4.588 4.588 0 0 0-3.678-1.067l-24.836 3.68a4.6 4.6 0 0 0-3.926 4.55v53.886a4.6 4.6 0 0 0 4.6 4.6h40.865c-.029 2.237-.059 4.474-.082 6.71-6.893 6.676-12.865 18.309-14.42 38.448-1.283 16.638 1.751 29.054 9.019 36.904a26.87 26.87 0 0 0 5.709 4.682c.081 4.399.187 8.8.289 13.2-3.226 2.578-5.298 6.54-5.298 10.992v5.713h46.299v18.258H52.525v4.005c0 7.573 5.981 13.73 13.476 14.04v26.486A5.218 5.218 0 0 0 71.214 390h33.604a5.22 5.22 0 0 0 5.212-5.214V358.33h169.94v26.457a5.218 5.218 0 0 0 5.212 5.214h33.604a5.221 5.221 0 0 0 5.215-5.214V358.3c7.492-.311 13.476-6.468 13.476-14.04v-4.005h-46.299v-18.258h46.299v-5.713c0-4.454-2.074-8.417-5.303-10.994.103-4.399.208-8.799.29-13.198a26.915 26.915 0 0 0 5.711-4.683c7.268-7.85 10.302-20.266 9.018-36.903-1.553-20.137-7.525-31.77-14.418-38.446-.023-2.237-.053-4.475-.082-6.712h40.865a4.6 4.6 0 0 0 4.6-4.6v-53.886a4.6 4.6 0 0 0-3.926-4.55l-24.836-3.68a4.599 4.599 0 0 0-5.274 4.549v43.366l-11.714 1.126a2828.267 2828.267 0 0 0-7.505-158.369c-.939-9.71-8.864-17.565-18.723-17.806h-5.954C297.495 4.758 290.896 0 283.178 0H106.822c-7.719 0-14.316 4.758-17.047 11.498H83.82c-9.861.24-17.781 8.096-18.726 17.806a2832.166 2832.166 0 0 0-7.501 158.369l-11.715-1.126v-43.366a4.592 4.592 0 0 0-1.595-3.482zm194.404 177.648h-87.375c-6.016 0-10.895-4.878-10.895-10.894H249.58c.001 6.017-4.876 10.894-10.893 10.894zm13.797-29.636h-114.97c-6.017 0-10.894-4.877-10.894-10.895h136.758c0 6.017-4.877 10.895-10.894 10.895zm10.474-28.168H127.039c-7.112 0-12.879-5.767-12.879-12.879h161.677c0 7.112-5.764 12.879-12.879 12.879zm-136.338-39.56h136.758c0 6.016-4.877 10.893-10.893 10.893H137.514c-6.017 0-10.894-4.877-10.894-10.893zm184.455-.625h.058c14.535 0 18.944 17.608 20.084 32.38.914 11.836-.746 20.407-4.8 24.786-2.439 2.634-5.906 3.915-10.603 3.915a28.92 28.92 0 0 1-4.739-.414v-60.667zM256.785 31.87h26.372v13.799h-26.372V31.87zm-149.943 0h26.371v13.799h-26.371V31.87zM87.766 71.194h214.462a2819.995 2819.995 0 0 1 5.137 87.949H82.637c1.256-29.37 2.98-58.918 5.129-87.949zM58.781 251.738c1.14-14.771 5.55-32.38 20.084-32.38h.058v60.666a28.871 28.871 0 0 1-4.739.416c-4.695 0-8.164-1.28-10.602-3.914-4.055-4.379-5.715-12.951-4.801-24.788z" style="stroke:#000000;stroke-width:0;stroke-linecap:round;stroke-linejoin:round;" fill="#36454f" opacity="1" data-original="#000000" class=""></path></g></svg>