<svg xmlns="http://www.w3.org/2000/svg" version="1.1" xmlns:xlink="http://www.w3.org/1999/xlink" width="512" height="512" x="0" y="0" viewBox="0 0 512 512" style="enable-background:new 0 0 512 512" xml:space="preserve" class=""><g><circle cx="47" cy="47" r="47" fill="#36454f" opacity="1" data-original="#000000" class=""></circle><circle cx="326.177" cy="250.177" r="34.823" fill="#36454f" opacity="1" data-original="#000000" class=""></circle><path d="M471.982 265.844c20.1-24.532 31.018-55.082 31.018-87.517 0-75.642-60.561-137.182-135-137.182-30.705 0-60.524 10.78-84.296 30.062C265.957 47.524 237.952 33 208 33c-50.116 0-91.293 39.604-94.763 89.607-.413-.004-.824-.007-1.237-.007-61.757 0-112 50.577-112 112.745 0 22.86 6.929 44.956 20.039 63.897 9.646 13.938 22.079 25.43 36.461 33.799a114.605 114.605 0 0 0-7.5 40.776c0 62.168 49.794 112.745 111 112.745 34.619 0 66.52-16.219 87.233-42.963C273.255 485.407 318.867 512 368 512c38.247 0 74.368-15.328 101.709-43.161C496.981 441.077 512 404.438 512 365.673c0-36.95-14.426-72.573-40.018-99.829zm-227.277 29.145a55.257 55.257 0 0 1-5.561 5.736c-10.058 8.958-22.963 13.692-37.321 13.692-35.743 0-64.823-29.08-64.823-64.823s29.08-64.823 64.823-64.823c12.989 0 25.525 3.832 36.254 11.08 6.865 4.638 8.669 13.962 4.032 20.827-4.639 6.864-13.964 8.668-20.827 4.032-5.75-3.885-12.479-5.938-19.459-5.938-19.201 0-34.823 15.622-34.823 34.823s15.622 34.823 34.823 34.823c6.984 0 12.828-2.05 17.368-6.094a24.966 24.966 0 0 0 2.525-2.608c5.323-6.348 14.784-7.179 21.132-1.857 6.348 5.32 7.179 14.782 1.857 21.13zm16.649-44.812c0-35.743 29.08-64.823 64.823-64.823S391 214.434 391 250.177 361.92 315 326.177 315s-64.823-29.08-64.823-64.823zm154.834 171.904c-11.342.143-19.609.208-25.692.208-15.561 0-16.847-.429-18.854-1.098-4.756-1.585-8.465-5.357-9.921-10.091-2.439-7.929 1.544-13.145 6.587-19.748 3.92-5.133 11.218-14.688 23.458-32.177 3.652-5.218 5.169-8.824 5.788-11.06l.109-.857a4.9 4.9 0 0 0-4.851-4.258c-2.645 0-4.417 1.976-4.8 3.928-1.597 8.129-9.479 13.425-17.61 11.828-8.129-1.597-13.424-9.48-11.828-17.61C361.778 324.837 376.177 313 392.813 313c19.24 0 34.892 15.652 34.892 34.892 0 .636-.041 1.271-.121 1.901l-.384 3.007c-.064.5-.153.996-.267 1.487-1.624 7.005-5.088 14.231-10.589 22.09a1154.094 1154.094 0 0 1-11.255 15.816c3.563-.029 7.199-.067 10.723-.111l.192-.001c8.196 0 14.892 6.592 14.995 14.812.104 8.284-6.527 15.083-14.811 15.188z" fill="#36454f" opacity="1" data-original="#000000" class=""></path></g></svg>