<svg xmlns="http://www.w3.org/2000/svg" version="1.1" xmlns:xlink="http://www.w3.org/1999/xlink" width="512" height="512" x="0" y="0" viewBox="0 0 511.999 511.999" style="enable-background:new 0 0 512 512" xml:space="preserve" class=""><g><path d="m411.746 135.223 90-30c7.852-2.607 12.1-11.104 9.478-18.97-2.622-7.837-11.06-12.144-18.97-9.478l-90 30c-7.852 2.607-12.1 11.104-9.478 18.97 2.604 7.812 11.058 12.115 18.97 9.478zM392.776 215.745c2.604 7.811 11.058 12.114 18.97 9.478l90-30c7.852-2.607 12.1-11.104 9.478-18.97a14.964 14.964 0 0 0-18.97-9.478l-90 30c-7.852 2.608-12.1 11.104-9.478 18.97zM392.776 305.745c2.604 7.811 11.058 12.114 18.97 9.478l90-30c7.852-2.607 12.1-11.104 9.478-18.97s-11.06-12.144-18.97-9.478l-90 30c-7.852 2.608-12.1 11.104-9.478 18.97zM392.776 395.745c2.604 7.811 11.058 12.114 18.97 9.478l90-30c7.852-2.607 12.1-11.104 9.478-18.97a14.964 14.964 0 0 0-18.97-9.478l-90 30c-7.852 2.608-12.1 11.104-9.478 18.97zM271.18 455.877l-3.479 10.122H317c6.401 0 12.1-4.072 14.18-10.122 1.26-3.662 30.82-90.923 30.82-199.878S332.439 59.783 331.18 56.121A15.002 15.002 0 0 0 317 45.999h-49.299l3.479 10.122c1.26 3.662 30.82 90.923 30.82 199.878s-29.561 196.216-30.82 199.878z" fill="#36454f" opacity="1" data-original="#000000" class=""></path><path d="M235.981 45.999H210c-115.796 0-210 94.204-210 210s94.204 210 210 210h25.989l6.832-19.878c.278-.835 29.18-86.411 29.18-190.122S243.099 66.712 242.806 65.863z" fill="#36454f" opacity="1" data-original="#000000" class=""></path></g></svg>